<?xml version="1.0" encoding="utf-8"?>
<!-- Generator: Adobe Illustrator 21.0.0, SVG Export Plug-In . SVG Version: 6.00 Build 0)  -->
<svg version="1.1" id="Layer_1" xmlns="http://www.w3.org/2000/svg" xmlns:xlink="http://www.w3.org/1999/xlink" x="0px" y="0px"
	 viewBox="0 0 19 17.6" style="enable-background:new 0 0 19 17.6;" xml:space="preserve">
<style type="text/css">
	.st0{fill:#3F90BF;}
</style>
<g>
	<path class="st0" d="M12.3,9.9c0-1.2-1-2.2-2.2-2.2c-1.2,0-2.2,1-2.2,2.2s1,2.2,2.2,2.2C11.3,12.1,12.3,11.1,12.3,9.9 M13.6,9.9
		c0,1.9-1.6,3.5-3.5,3.5c-1,0-1.9-0.4-2.6-1.1l-2.8,1.8c-0.1,0.1-0.2,0.1-0.4,0.1c-0.2,0-0.4-0.1-0.6-0.3C3.6,13.6,3.7,13.2,4,13
		l2.8-1.8c-0.2-0.4-0.2-0.8-0.2-1.3c0-1.9,1.6-3.5,3.5-3.5C12.1,6.4,13.6,8,13.6,9.9 M19,14.8V6c0-0.8-0.3-1.4-0.8-2
		c-0.5-0.5-1.2-0.8-2-0.8H9.6V2.8c0-0.8-0.3-1.4-0.8-2C8.2,0.3,7.6,0,6.8,0h-4C2,0,1.4,0.3,0.8,0.8S0,2,0,2.8v12
		c0,0.8,0.3,1.4,0.8,2c0.5,0.5,1.2,0.8,2,0.8h13.4c0.8,0,1.4-0.3,2-0.8C18.7,16.2,19,15.5,19,14.8"/>
</g>
</svg>
