<?xml version="1.0" encoding="utf-8"?>
<!-- Generator: Adobe Illustrator 21.0.0, SVG Export Plug-In . SVG Version: 6.00 Build 0)  -->
<svg version="1.1" id="Layer_1" xmlns="http://www.w3.org/2000/svg" xmlns:xlink="http://www.w3.org/1999/xlink" x="0px" y="0px"
	 viewBox="0 0 10 10" style="enable-background:new 0 0 10 10;" xml:space="preserve">
<style type="text/css">
	.st0{fill:#FFFFFF;}
</style>
<g>
	<path class="st0" d="M5,0C2.2,0,0,2.2,0,5s2.2,5,5,5s5-2.2,5-5S7.8,0,5,0z M5,9C2.8,9,1,7.2,1,5s1.8-4,4-4c2.2,0,4,1.8,4,4
		S7.2,9,5,9z"/>
	<path class="st0" d="M5.4,4.9V2.2c0-0.3-0.2-0.5-0.5-0.5S4.4,2,4.4,2.2v2.9c0,0.1,0,0.3,0.1,0.3L6,7.1c0.1,0.1,0.2,0.2,0.4,0.2
		c0.1,0,0.2,0,0.3-0.1C6.9,7,7,6.6,6.8,6.4L5.4,4.9z"/>
</g>
</svg>
