<?xml version="1.0" encoding="utf-8"?>
<!-- Generator: Adobe Illustrator 21.0.0, SVG Export Plug-In . SVG Version: 6.00 Build 0)  -->
<svg version="1.1" id="Layer_1" xmlns="http://www.w3.org/2000/svg" xmlns:xlink="http://www.w3.org/1999/xlink" x="0px" y="0px"
	 viewBox="0 0 8 8" style="enable-background:new 0 0 8 8;" xml:space="preserve">
<style type="text/css">
	.st0{fill:#3F90BF;}
</style>
<g>
	<path class="st0" d="M4,0C1.8,0,0,1.8,0,4c0,2.2,1.8,4,4,4c2.2,0,4-1.8,4-4C8,1.8,6.2,0,4,0z M4,7.2C2.2,7.2,0.8,5.8,0.8,4
		S2.2,0.8,4,0.8S7.2,2.2,7.2,4S5.8,7.2,4,7.2z"/>
	<path class="st0" d="M4.3,4V1.8c0-0.2-0.2-0.4-0.4-0.4S3.5,1.6,3.5,1.8v2.3c0,0.1,0,0.2,0.1,0.3l1.3,1.3C4.9,5.8,5,5.8,5.1,5.8
		c0.1,0,0.2,0,0.3-0.1c0.2-0.1,0.2-0.4,0-0.5L4.3,4z"/>
</g>
</svg>
