<?xml version="1.0" encoding="utf-8"?>
<!-- Generator: Adobe Illustrator 14.0.0, SVG Export Plug-In . SVG Version: 6.00 Build 43363)  -->
<!DOCTYPE svg PUBLIC "-//W3C//DTD SVG 1.1//EN" "http://www.w3.org/Graphics/SVG/1.1/DTD/svg11.dtd">
<svg version="1.1" id="Layer_1" xmlns="http://www.w3.org/2000/svg" xmlns:xlink="http://www.w3.org/1999/xlink" x="0px" y="0px"
	 width="612px" height="792px" viewBox="0 0 612 792" enable-background="new 0 0 612 792" xml:space="preserve">
<g>
	<path fill="#3F90BF" d="M361.8,145.8c-138.6,0-250.2,111.6-250.2,250.2c0,43.2,10.8,82.8,30.6,118.8c0,0-1.8,0-1.8,1.8L10.8,608.4
		c-9,7.199-10.8,18-5.4,27c3.6,5.399,10.8,9,16.2,9c3.6,0,7.2-1.801,10.8-3.601L162,547.2l0,0c45,61.2,118.8,99,199.8,99
		C500.4,646.2,612,534.6,612,396C612,257.4,500.4,145.8,361.8,145.8z M361.8,606.6c-117,0-210.6-95.399-210.6-210.6
		s93.6-210.6,210.6-210.6S572.4,280.8,572.4,396S477,606.6,361.8,606.6z"/>
	<polygon fill="#FFFFFF" points="370.8,390.6 284.4,340.2 284.4,444.6 370.8,394.2 370.8,444.6 462.6,392.4 370.8,340.2 	"/>
</g>
<g>
	<path fill="#3F90BF" d="M385.563,399.604c0-12.659-10.737-23.207-23.622-23.207c-12.883,0-23.62,10.548-23.62,23.207
		c0,12.658,10.737,23.207,23.62,23.207C374.826,422.811,385.563,412.262,385.563,399.604 M399.521,399.604
		c0,20.041-17.18,36.919-37.58,36.919c-10.736,0-20.399-4.219-27.915-11.604l-30.063,18.987c-1.073,1.055-2.147,1.055-4.295,1.055
		s-4.294-1.055-6.441-3.164c-1.074-3.164,0-7.384,3.221-9.493l30.062-18.987c-2.146-4.22-2.146-8.439-2.146-13.713
		c0-20.042,17.179-36.92,37.578-36.92C383.416,362.684,399.521,379.561,399.521,399.604 M457.5,451.291v-92.827
		c0-8.439-3.221-14.768-8.589-21.097c-5.369-5.274-12.885-8.438-21.475-8.438h-70.862v-4.22c0-8.439-3.222-14.768-8.59-21.097
		c-6.442-5.274-12.884-8.439-21.475-8.439h-42.947c-8.589,0-15.031,3.165-21.474,8.439c-6.442,5.274-8.589,12.658-8.589,21.097
		v126.582c0,8.438,3.221,14.768,8.589,21.097c5.369,5.274,12.884,8.438,21.474,8.438h143.874c8.59,0,15.032-3.164,21.475-8.438
		C454.279,466.059,457.5,458.674,457.5,451.291"/>
</g>
<rect x="290.5" y="355.5" fill="#3F90BF" width="127" height="102"/>
</svg>
