<?xml version="1.0" encoding="utf-8"?>
<!-- Generator: Adobe Illustrator 21.0.0, SVG Export Plug-In . SVG Version: 6.00 Build 0)  -->
<svg version="1.1" id="Layer_1" xmlns="http://www.w3.org/2000/svg" xmlns:xlink="http://www.w3.org/1999/xlink" x="0px" y="0px"
	 viewBox="0 0 29 29" style="enable-background:new 0 0 29 29;" xml:space="preserve">
<style type="text/css">
	.st0{fill:#2B3F55;}
	.st1{fill:#FFFFFF;}
</style>
<g>
	<g>
		<g>
			<path class="st0" d="M14.5,29c8,0,14.5-6.5,14.5-14.5S22.5,0,14.5,0S0,6.5,0,14.5S6.5,29,14.5,29"/>
		</g>
		<g>
			<path class="st1" d="M14.5,20.9c-3.5,0-6.4-2.9-6.4-6.4c0-3.5,2.9-6.4,6.4-6.4s6.4,2.9,6.4,6.4C20.9,18,18,20.9,14.5,20.9z
				 M14.5,11c-1.9,0-3.5,1.6-3.5,3.5c0,1.9,1.6,3.5,3.5,3.5s3.5-1.6,3.5-3.5C18,12.6,16.4,11,14.5,11z"/>
		</g>
	</g>
	<g>
		<rect x="13.2" y="3" class="st0" width="2.6" height="23"/>
	</g>
	<g>
		<rect x="3" y="13.2" class="st0" width="23" height="2.6"/>
	</g>
</g>
</svg>
