<?xml version="1.0" encoding="utf-8"?>
<!-- Generator: Adobe Illustrator 21.0.0, SVG Export Plug-In . SVG Version: 6.00 Build 0)  -->
<svg version="1.1" id="Layer_1" xmlns="http://www.w3.org/2000/svg" xmlns:xlink="http://www.w3.org/1999/xlink" x="0px" y="0px"
	 viewBox="0 0 29 29" style="enable-background:new 0 0 29 29;" xml:space="preserve">
<style type="text/css">
	.st0{fill:#2B3F55;}
	.st1{fill:#FFFFFF;}
</style>
<g>
	<g>
		<path class="st0" d="M14.5,29c8,0,14.5-6.5,14.5-14.5S22.5,0,14.5,0S0,6.5,0,14.5S6.5,29,14.5,29"/>
		<path class="st1" d="M12.7,10.6c-0.1-0.6-0.2-0.9-0.4-1.1c-0.2-0.2-0.6-0.2-1.2-0.2c-1.3,0-1.9,0.8-1.9,2.3c0,0.9,0.3,1.7,1,2.3
			v0.6c-0.6,0.1-1.2,0.3-1.8,0.6c-0.7,0.4-1,0.8-1,1.2c0,0.5,0.4,0.8,1.2,1c0.5,0.1,0.9,0.2,1.1,0.3c1-0.8,1.9-1.2,2.5-1.3
			c-0.5-0.6-0.8-1.5-0.8-2.7C11.5,12.1,11.9,11.2,12.7,10.6 M16.5,13.6c0-1.7-0.7-2.5-2-2.5c0,0,0,0,0,0c0,0,0,0,0,0
			c-1.3,0-2,0.8-2,2.5c0,1,0.4,1.8,1.1,2.5v0.7c-0.6,0-1.3,0.2-2,0.6c-0.8,0.5-1.2,0.8-1.2,1.2s0.3,0.6,0.9,0.7
			c0.6,0.2,1.2,0.3,1.8,0.4c0.4,0,0.8,0.1,1.3,0.1c0.5,0,0.9,0,1.3-0.1c0.6-0.1,1.2-0.2,1.8-0.4s0.9-0.4,0.9-0.7s-0.4-0.7-1.2-1.2
			c-0.7-0.4-1.4-0.6-2-0.6v-0.7C16.1,15.5,16.5,14.7,16.5,13.6 M21.6,16.2c0-0.4-0.3-0.8-1-1.2c-0.6-0.3-1.2-0.5-1.8-0.6v-0.6
			c0.7-0.6,1-1.4,1-2.3c0-1.6-0.6-2.3-1.9-2.3c-0.6,0-1,0.1-1.2,0.2c-0.2,0.2-0.4,0.5-0.4,1.1c0.8,0.5,1.2,1.5,1.2,3
			c0,1.2-0.3,2.1-0.8,2.7c0.6,0.1,1.5,0.4,2.5,1.3c0.3-0.1,0.7-0.2,1.1-0.3C21.1,17,21.6,16.7,21.6,16.2"/>
	</g>
</g>
</svg>
