<?xml version="1.0" encoding="utf-8"?>
<!-- Generator: Adobe Illustrator 21.0.0, SVG Export Plug-In . SVG Version: 6.00 Build 0)  -->
<svg version="1.1" id="Layer_1" xmlns="http://www.w3.org/2000/svg" xmlns:xlink="http://www.w3.org/1999/xlink" x="0px" y="0px"
	 viewBox="0 0 29 29" style="enable-background:new 0 0 29 29;" xml:space="preserve">
<style type="text/css">
	.st0{fill:#2B3F55;}
	.st1{fill:#FFFFFF;}
</style>
<g>
	<g>
		<path class="st0" d="M14.5,29c8,0,14.5-6.5,14.5-14.5S22.5,0,14.5,0S0,6.5,0,14.5S6.5,29,14.5,29"/>
		<path class="st1" d="M19.9,8.4C19.7,8.1,19.3,8,19,8h-7c-0.4,0-0.7,0.1-1,0.4c-0.3,0.3-0.4,0.6-0.4,1v0.7H12V9.4h7v7h-0.7v1.4
			c0.5,0,1-0.1,1.4-0.2c0.5-0.1,0.7-0.5,0.7-1.2v-7C20.4,9,20.2,8.7,19.9,8.4"/>
		<path class="st1" d="M16.2,18.4H9.9v-6.3h6.3V18.4z M16.2,10.8H10c-0.4,0-0.7,0.1-1,0.4c-0.3,0.3-0.4,0.6-0.4,1v6.3
			c0,0.4,0.1,0.7,0.4,1c0.3,0.3,0.6,0.4,1,0.4h6.3c0.4,0,0.7-0.1,1-0.4c0.3-0.3,0.4-0.6,0.4-1v-6.3c0-0.4-0.1-0.7-0.4-1
			C16.9,10.9,16.6,10.8,16.2,10.8"/>
	</g>
	<rect x="10.6" y="16.5" class="st1" width="4.9" height="1.2"/>
	<rect x="10.6" y="14.7" class="st1" width="4.9" height="1.2"/>
	<rect x="10.6" y="12.8" class="st1" width="4.9" height="1.2"/>
</g>
</svg>
