<?xml version="1.0" encoding="utf-8"?>
<!-- Generator: Adobe Illustrator 21.0.0, SVG Export Plug-In . SVG Version: 6.00 Build 0)  -->
<svg version="1.1" id="Layer_1" xmlns="http://www.w3.org/2000/svg" xmlns:xlink="http://www.w3.org/1999/xlink" x="0px" y="0px"
	 viewBox="0 0 29 29" style="enable-background:new 0 0 29 29;" xml:space="preserve">
<style type="text/css">
	.st0{fill:#2B3F55;}
	.st1{fill:#FFFFFF;}
</style>
<g>
	<path class="st0" d="M14.5,29c8,0,14.5-6.5,14.5-14.5S22.5,0,14.5,0S0,6.5,0,14.5S6.5,29,14.5,29"/>
	<path class="st1" d="M14.1,20c-2,0-3.9-0.8-4.9-2c-0.2-0.2-0.2-0.5,0.1-0.7c0.2-0.2,0.6-0.2,0.7,0.1c0.9,1,2.4,1.6,4.1,1.6h1.2
		c0.6,0,1.2-0.1,1.8-0.3c0.6-0.2,1-0.4,1.4-0.8c0.3-0.3,0.6-1,0.4-1.5c-0.2-0.7-1.2-1.2-2.8-1.4l-3.3-0.3c-2.2-0.3-3.4-1.3-3.4-2.7
		c0-2.1,2.3-3,4.4-3h1.2c1.8,0,3.5,0.7,4.5,1.8c0.2,0.2,0.2,0.5,0,0.7c-0.2,0.2-0.5,0.2-0.7,0c-0.8-0.9-2.2-1.4-3.7-1.4h-1.2
		c-1.2,0-3.3,0.4-3.3,2c0,1.2,1.8,1.5,2.5,1.6l3.3,0.3c0.8,0.1,3.1,0.4,3.7,2.1c0.3,0.8,0,1.9-0.6,2.5c-0.4,0.4-1,0.8-1.8,1
		C16.8,19.9,16,20,15.3,20H14.1z"/>
</g>
</svg>
