<?xml version="1.0" encoding="utf-8"?>
<!-- Generator: Adobe Illustrator 21.0.0, SVG Export Plug-In . SVG Version: 6.00 Build 0)  -->
<svg version="1.1" id="Layer_1" xmlns="http://www.w3.org/2000/svg" xmlns:xlink="http://www.w3.org/1999/xlink" x="0px" y="0px"
	 viewBox="0 0 34 27.8" style="enable-background:new 0 0 34 27.8;" xml:space="preserve">
<style type="text/css">
	.st0{fill:#FFFFFF;}
</style>
<g>
	<path class="st0" d="M20.1,0C12.4,0,6.2,6.2,6.2,13.9c0,2.4,0.6,4.6,1.7,6.6c0,0-0.1,0-0.1,0.1l-7.2,5.1c-0.5,0.4-0.6,1-0.3,1.5
		c0.2,0.3,0.6,0.5,0.9,0.5c0.2,0,0.4-0.1,0.6-0.2L9,22.3c0,0,0,0,0,0c2.5,3.4,6.6,5.5,11.1,5.5c7.7,0,13.9-6.2,13.9-13.9
		C34,6.2,27.8,0,20.1,0z M20.1,25.6c-6.5,0-11.7-5.3-11.7-11.7S13.6,2.2,20.1,2.2c6.5,0,11.7,5.3,11.7,11.7S26.5,25.6,20.1,25.6z"/>
	<polygon class="st0" points="20.6,13.6 15.8,10.8 15.8,16.6 20.6,13.8 20.6,16.6 25.7,13.7 20.6,10.8 	"/>
</g>
</svg>
