<?xml version="1.0" encoding="utf-8"?>
<!-- Generator: Adobe Illustrator 21.0.0, SVG Export Plug-In . SVG Version: 6.00 Build 0)  -->
<svg version="1.1" id="Layer_1" xmlns="http://www.w3.org/2000/svg" xmlns:xlink="http://www.w3.org/1999/xlink" x="0px" y="0px"
	 viewBox="0 0 29 29" style="enable-background:new 0 0 29 29;" xml:space="preserve">
<style type="text/css">
	.st0{fill:#2B3F55;}
	.st1{fill:#FFFFFF;}
</style>
<g>
	<g>
		<path class="st0" d="M14.5,29c8,0,14.5-6.5,14.5-14.5S22.5,0,14.5,0S0,6.5,0,14.5S6.5,29,14.5,29"/>
		<path class="st1" d="M22.4,14.8c-0.1-0.2-0.3-0.2-0.4-0.3l-3.3-0.6l-3.5-0.7c-0.2,0-0.5-0.1-0.7-0.1s-0.5,0-0.7,0.1L7,14.5
			c-0.1,0-0.3,0.1-0.4,0.3c-0.1,0.2,0.1,0.3,0.2,0.4l7.2,7.2c0.3,0.3,0.8,0.3,1.1,0l7.2-7.2C22.3,15.1,22.4,14.9,22.4,14.8"/>
		<path class="st1" d="M15.4,12.2l3.1,0.6c-0.5-1.5-1.8-2.7-3.4-3c0.7-0.3,1.2-0.9,1.2-1.7c0-1-0.8-1.8-1.8-1.8
			c-1,0-1.8,0.8-1.8,1.8c0,0.8,0.5,1.4,1.2,1.7c-1.6,0.2-2.9,1.4-3.4,3l3.1-0.6C14.1,12.1,14.9,12.1,15.4,12.2"/>
	</g>
</g>
</svg>
