<?xml version="1.0" encoding="utf-8"?>
<!-- Generator: Adobe Illustrator 21.0.0, SVG Export Plug-In . SVG Version: 6.00 Build 0)  -->
<svg version="1.1" id="Layer_1" xmlns="http://www.w3.org/2000/svg" xmlns:xlink="http://www.w3.org/1999/xlink" x="0px" y="0px"
	 viewBox="0 0 29 29" style="enable-background:new 0 0 29 29;" xml:space="preserve">
<style type="text/css">
	.st0{fill:#3CB6E8;}
	.st1{fill:#FFFFFF;}
</style>
<g>
	<g>
		<path class="st0" d="M14.5,29c8,0,14.5-6.5,14.5-14.5S22.5,0,14.5,0S0,6.5,0,14.5S6.5,29,14.5,29"/>
		<path class="st1" d="M11.4,18.5v3.1l3.1-3.1h3.9c0.9,0,1.5-0.4,2-1.1c0.3-0.4,0.4-0.8,0.4-1.2v-4.7c0-0.6-0.2-1.2-0.7-1.6
			c-0.5-0.5-1-0.7-1.6-0.7h-7.8c-0.6,0-1.2,0.2-1.6,0.7c-0.5,0.5-0.7,1-0.7,1.6v4.7C8.2,17.7,9.3,18.5,11.4,18.5"/>
	</g>
</g>
</svg>
