<?xml version="1.0" encoding="utf-8"?>
<!-- Generator: Adobe Illustrator 21.0.0, SVG Export Plug-In . SVG Version: 6.00 Build 0)  -->
<svg version="1.1" id="Layer_1" xmlns="http://www.w3.org/2000/svg" xmlns:xlink="http://www.w3.org/1999/xlink" x="0px" y="0px"
	 viewBox="0 0 377.7 21.7" style="enable-background:new 0 0 377.7 21.7;" xml:space="preserve">
<style type="text/css">
	.st0{fill:#31B2E7;}
	.st1{fill:#1D1D1B;}
</style>
<g>
	<g>
		<path class="st0" d="M335.1,20h-0.5c-5.5,0-10-4.1-10-9.1s4.5-9.1,10-9.1h0.5c5.5,0,10,4.1,10,9.1S340.6,20,335.1,20 M335.1,0
			h-0.5c-6.5,0-11.7,4.9-11.7,10.8s5.3,10.8,11.7,10.8h0.5c6.5,0,11.7-4.9,11.7-10.8S341.6,0,335.1,0"/>
		<path class="st0" d="M307.8,1.7c3.6,0,7.1,1.9,8.8,4.6c0,0,0.1,0.2,0.2,0.4c0.1,0.2,0.4,0.2,0.7,0.1l0.6-0.4
			c0.2-0.1,0.3-0.4,0.2-0.6L318,5.5c-2-3.3-6-5.4-10.2-5.4H307c-6.4,0-11.8,5-11.8,10.8c0,5.9,5.4,10.8,11.8,10.8h0.7
			c4.2,0,8.2-2.1,10.2-5.4c0,0,0.1-0.2,0.2-0.4c0.1-0.2,0-0.5-0.2-0.6l-0.6-0.4c-0.2-0.1-0.5-0.1-0.7,0.1l-0.2,0.4
			c-1.7,2.8-5.2,4.6-8.8,4.6H307c-5.4,0-10-4.2-10-9.1c0-4.9,4.6-9.1,10-9.1H307.8z"/>
		<path class="st0" d="M290.1,18.4c-0.8,0-1.4,0.6-1.4,1.4c0,0.8,0.6,1.4,1.4,1.4c0.7,0,1.4-0.6,1.4-1.4
			C291.5,19,290.9,18.4,290.1,18.4"/>
		<path class="st0" d="M375.6,0.4l-10.2,7.7c-0.1,0.1-0.4,0.1-0.6,0l-10.2-7.7c-0.5-0.4-1-0.4-1.5-0.2c-0.5,0.2-0.7,0.7-0.7,1.3
			v19.2c0,0.3,0.2,0.5,0.5,0.5h0.7c0.3,0,0.5-0.2,0.5-0.5l0-18.4l9.6,7.3c0.8,0.6,1.9,0.6,2.6,0l9.6-7.3v18.4c0,0.3,0.2,0.5,0.5,0.5
			h0.7c0.3,0,0.5-0.2,0.5-0.5V1.5c0-0.6-0.3-1.1-0.7-1.3C376.6,0,376,0,375.6,0.4"/>
		<path class="st1" d="M235.7,2.3H246v18.4c0,0.3,0.2,0.5,0.5,0.5h0.7c0.3,0,0.5-0.2,0.5-0.5V2.3h10.3c0.3,0,0.5-0.2,0.5-0.5V1
			c0-0.3-0.2-0.5-0.5-0.5h-22.2c-0.3,0-0.5,0.2-0.5,0.5v0.7C235.2,2,235.4,2.3,235.7,2.3"/>
		<path class="st1" d="M210.5,10V1c0-0.3-0.2-0.5-0.5-0.5h-0.7c-0.3,0-0.5,0.2-0.5,0.5v19.6c0,0.3,0.2,0.5,0.5,0.5h0.7
			c0.3,0,0.5-0.2,0.5-0.5v-8.9h17.7v8.9c0,0.3,0.2,0.5,0.5,0.5h0.7c0.3,0,0.5-0.2,0.5-0.5V1c0-0.3-0.2-0.5-0.5-0.5h-0.7
			c-0.3,0-0.5,0.2-0.5,0.5V10H210.5z"/>
		<path class="st1" d="M200.4,6.4c0,0,0.1,0.2,0.2,0.4c0.1,0.2,0.4,0.3,0.7,0.1l0.6-0.4c0.2-0.1,0.3-0.4,0.2-0.6l-0.2-0.4
			c-2-3.3-5.9-5.5-10.1-5.5h-0.7c-6.3,0-11.6,5-11.6,10.8s5.3,10.8,11.6,10.8h0.7c4.1,0,8.1-2.1,10-5.4c0,0,0.1-0.2,0.2-0.4
			c0.1-0.2,0-0.5-0.2-0.6l-0.6-0.4c-0.2-0.1-0.5-0.1-0.7,0.1l-0.2,0.4c-1.7,2.8-5.1,4.6-8.6,4.6h-0.7c-5.3,0-9.8-4.2-9.8-9.1
			s4.5-9.1,9.8-9.1h0.7C195.3,1.7,198.7,3.6,200.4,6.4"/>
		<path class="st1" d="M38.4,20h-1.6c-2.5,0-8.2-0.6-8.2-6.3V1c0-0.3-0.2-0.5-0.5-0.5h-0.7c-0.3,0-0.5,0.2-0.5,0.5v12.7
			c0,4.9,3.8,8,9.9,8h1.6c6.1,0,9.9-3.1,9.9-8V1.1c0-0.3-0.2-0.5-0.5-0.5h-0.7c-0.3,0-0.5,0.2-0.5,0.5v12.7
			C46.5,19.4,40.8,20,38.4,20"/>
		<path class="st1" d="M107.5,3.1V2.3l1,0v0h12.2c2,0,3.6,1.7,3.6,3.9s-1.6,3.9-3.6,3.9l-13.2,0V3.1z M120.7,0.5h-13.2
			c0,0-0.3,0-0.3,0c-0.7,0-1.4,0.6-1.4,1.3v0.3v1v17.5c0,0.3,0.2,0.5,0.5,0.5h0.7c0.3,0,0.5-0.2,0.5-0.5v-9l9.4,0l6.8,9.1
			c0.2,0.2,0.5,0.4,0.8,0.4h1.1c0.3,0,0.4-0.2,0.2-0.4l-6.8-9.1l1.7,0c2.9,0,5.3-2.5,5.3-5.6S123.6,0.5,120.7,0.5"/>
		<path class="st1" d="M82,0.5c-0.7,0-1.4,0.6-1.4,1.3v0.3v1V10v1.7v6.9v1v0.3c0,0.7,0.6,1.3,1.4,1.3h0.2h1.1h15.5
			c0.3,0,0.5-0.2,0.5-0.5V20c0-0.3-0.2-0.5-0.5-0.5H83.3h-1v-0.9v-6.9H95c0.3,0,0.5-0.2,0.5-0.5v-0.7c0-0.3-0.2-0.5-0.5-0.5H82.3
			V3.1V2.3l1,0h15.5c0.3,0,0.5-0.2,0.5-0.5V1c0-0.3-0.2-0.5-0.5-0.5H83.3h-1.1H82z"/>
		<path class="st1" d="M157.5,13.7L164,3.1l6.5,10.6H157.5z M162.7,1.8l-11.6,19c-0.1,0.2,0,0.4,0.2,0.4h1.1c0.3,0,0.6-0.2,0.8-0.4
			l3.2-5.2h15.2l3.2,5.2c0.1,0.2,0.5,0.4,0.8,0.4h1.1c0.3,0,0.4-0.2,0.2-0.4l-11.6-19C165,1.3,164.5,1,164,1
			C163.5,1,163,1.3,162.7,1.8"/>
		<path class="st1" d="M153.7,1.3l-0.4-0.6c-0.2-0.2-0.5-0.3-0.7-0.1l-10.7,6.9l-10.7-6.9c-0.2-0.2-0.5-0.1-0.7,0.1L130,1.3
			c-0.2,0.2-0.1,0.5,0.1,0.7L141,9v11.7c0,0.3,0.2,0.5,0.5,0.5h0.8c0.3,0,0.5-0.2,0.5-0.5V9l10.8-7C153.8,1.8,153.9,1.5,153.7,1.3"
			/>
		<path class="st1" d="M69.7,10l-13.2,0V3.2v-1c0,0,0.1,0,0.1,0h2l11.1,0c2,0,3.6,1.7,3.6,3.9C73.3,8.2,71.7,10,69.7,10 M69.7,0.5
			h-6.1c0,0-3.2,0-3.2,0s-1.8,0-2.9,0l0,0h-1.1h-0.2c-0.6,0-1.2,0.4-1.3,1c0,0.1,0,0.1,0,0.2c0,0,0,0.1,0,0.1v0.1v0.2v1.1v17.4
			c0,0.3,0.2,0.5,0.5,0.5h0.7c0.3,0,0.5-0.2,0.5-0.5v-9l13.2,0c2.9,0,5.3-2.5,5.3-5.6C75,3,72.6,0.5,69.7,0.5"/>
		<path class="st1" d="M269.9,9.3c-1.9-0.3-5.2-1.1-5.2-3.5c0-3.3,5.5-4.1,7.4-4.1c2.9-0.1,7.1,0.6,9.2,2.9c0,0,0.1,0.1,0.3,0.3
			c0.2,0.2,0.5,0.2,0.7,0l0.5-0.5c0.2-0.2,0.2-0.5,0.1-0.7l-0.3-0.3c-2.5-2.8-7.1-3.7-10.6-3.5C269,0,263,1.2,263,5.8
			c0,2.7,2.4,4.6,6.7,5.2l6.6,0.7c3.4,0.4,5.3,1.4,5.8,2.9c0.4,1.1-0.1,2.4-0.8,3.2c-0.6,0.7-1.5,1.2-2.8,1.6
			c-2,0.6-4.4,0.8-7.1,0.6c-2.2-0.2-5.4-1-7.5-3.3c0,0-0.1-0.1-0.3-0.3c-0.2-0.2-0.5-0.2-0.7,0l-0.5,0.5c-0.2,0.2-0.2,0.5-0.1,0.7
			l0.3,0.3c2,2.2,4.9,3.5,8.6,3.9c0.8,0.1,1.6,0.1,2.4,0.1c1.9,0,3.7-0.3,5.3-0.8c1.5-0.5,2.6-1.1,3.5-2c1.3-1.3,1.8-3.3,1.2-4.9
			c-1.1-3.4-5.7-3.9-7.2-4.1L269.9,9.3z"/>
		<path class="st1" d="M7.6,9.3C5.7,9,2.4,8.2,2.4,5.8c0-3.3,5.5-4.1,7.4-4.1c2.9-0.1,7.1,0.6,9.2,2.9c0,0,0.1,0.1,0.3,0.3
			c0.2,0.2,0.5,0.2,0.7,0l0.5-0.5c0.2-0.2,0.2-0.5,0.1-0.7l-0.3-0.3C17.9,0.7,13.3-0.1,9.8,0C6.7,0,0.7,1.2,0.7,5.8
			c0,2.7,2.4,4.6,6.7,5.2l6.6,0.7c3.4,0.4,5.3,1.4,5.8,2.9c0.4,1.1-0.1,2.4-0.8,3.2c-0.6,0.7-1.5,1.2-2.8,1.6
			c-2,0.6-4.4,0.8-7.1,0.6c-2.2-0.2-5.4-1-7.5-3.3c0,0-0.1-0.1-0.3-0.3c-0.2-0.2-0.5-0.2-0.7,0l-0.5,0.5C0,17-0.1,17.3,0.1,17.4
			l0.3,0.3c2,2.2,4.9,3.5,8.6,3.9c0.8,0.1,1.6,0.1,2.4,0.1c1.9,0,3.7-0.3,5.3-0.8c1.5-0.5,2.6-1.1,3.5-2c1.3-1.3,1.8-3.3,1.2-4.9
			c-1.1-3.4-5.7-3.9-7.2-4.1L7.6,9.3z"/>
	</g>
</g>
</svg>
